<?xml version="1.0" ?><!DOCTYPE svg  PUBLIC '-//W3C//DTD SVG 1.1//EN'  'http://www.w3.org/Graphics/SVG/1.1/DTD/svg11.dtd'><svg height="96" version="1.1" viewBox="0 0 96 96" width="96" xmlns="http://www.w3.org/2000/svg" xmlns:xlink="http://www.w3.org/1999/xlink"><path d="M41.644 48c0-0.7-0.372-1.348-0.98-1.696l-37.228-21.492c-0.604-0.352-1.856-0.352-2.456 0-0.608 0.352-1.48 1-1.48 1.696v42.984c0 0.7 0.872 1.344 1.48 1.696 0.3 0.172 0.892 0.26 1.228 0.26s0.804-0.088 1.104-0.26l37.288-21.492c0.608-0.348 1.044-0.992 1.044-1.696z" fill="#000000"/><path d="M53.4 4.9c-15.1 0-28.84 7.716-36.752 20.628-1.136 1.844-0.556 4.256 1.288 5.388 1.84 1.132 4.256 0.56 5.388-1.288 6.48-10.58 17.724-16.892 30.080-16.892 19.444 0 35.264 15.82 35.264 35.264s-15.82 35.264-35.264 35.264c-12.356 0-23.596-6.312-30.080-16.892-1.124-1.844-3.54-2.416-5.388-1.288-1.844 1.124-2.424 3.544-1.292 5.388 7.916 12.916 21.652 20.628 36.752 20.628 23.764 0 43.1-19.336 43.1-43.1s-19.332-43.1-43.096-43.1z" fill="#000000"/><path d="M53.4 71.508c-8.096 0-15.528-4.132-19.884-11.072-1.152-1.828-3.572-2.388-5.404-1.236s-2.388 3.572-1.236 5.408c5.792 9.228 15.708 14.74 26.52 14.74 17.284 0 31.344-14.068 31.344-31.348s-14.060-31.348-31.344-31.348c-10.812 0-20.728 5.512-26.52 14.74-1.152 1.836-0.596 4.252 1.236 5.404s4.252 0.592 5.404-1.236c4.352-6.932 11.784-11.072 19.884-11.072 12.964 0 23.508 10.544 23.508 23.508s-10.544 23.512-23.508 23.512z" fill="#000000"/></svg>